<mxfile host="app.diagrams.net" agent="Mozilla/5.0 (Windows NT 10.0; Win64; x64) AppleWebKit/537.36 (KHTML, like Gecko) Chrome/136.0.0.0 Safari/537.36" version="27.0.3">
  <diagram name="Page-1" id="791Ud5bWNXhkL0ilvFGb">
    <mxGraphModel dx="2339" dy="1969" grid="1" gridSize="10" guides="1" tooltips="1" connect="1" arrows="1" fold="1" page="1" pageScale="1" pageWidth="850" pageHeight="1100" math="0" shadow="0">
      <root>
        <mxCell id="0" />
        <mxCell id="1" parent="0" />
        <mxCell id="xYK7c_auuM8LPZImZWRX-97" style="edgeStyle=orthogonalEdgeStyle;rounded=0;orthogonalLoop=1;jettySize=auto;html=1;exitX=1;exitY=0.5;exitDx=0;exitDy=0;entryX=0;entryY=0.5;entryDx=0;entryDy=0;" edge="1" parent="1" source="xYK7c_auuM8LPZImZWRX-16" target="xYK7c_auuM8LPZImZWRX-45">
          <mxGeometry relative="1" as="geometry" />
        </mxCell>
        <mxCell id="xYK7c_auuM8LPZImZWRX-16" value="&lt;font style=&quot;font-size: 20px;&quot;&gt;PERSONAS&lt;/font&gt;" style="swimlane;whiteSpace=wrap;html=1;startSize=40;" vertex="1" parent="1">
          <mxGeometry x="80" y="110" width="320" height="720" as="geometry" />
        </mxCell>
        <mxCell id="xYK7c_auuM8LPZImZWRX-8" value="&lt;font style=&quot;font-size: 14px;&quot;&gt;Group 1 (e.g., Developers &amp;amp; App Creators&lt;/font&gt;" style="swimlane;horizontal=0;whiteSpace=wrap;html=1;startSize=60;" vertex="1" parent="xYK7c_auuM8LPZImZWRX-16">
          <mxGeometry x="50" y="90" width="220" height="120" as="geometry" />
        </mxCell>
        <mxCell id="xYK7c_auuM8LPZImZWRX-11" value="P-001 (Daniel - Full-stack developer)" style="rounded=0;whiteSpace=wrap;html=1;" vertex="1" parent="xYK7c_auuM8LPZImZWRX-8">
          <mxGeometry x="80" y="30" width="120" height="60" as="geometry" />
        </mxCell>
        <mxCell id="xYK7c_auuM8LPZImZWRX-9" value="&lt;font style=&quot;font-size: 14px;&quot;&gt;Group 2 (e.g., Caregivers &amp;amp; Medical Staff)&lt;/font&gt;" style="swimlane;horizontal=0;whiteSpace=wrap;html=1;startSize=60;" vertex="1" parent="xYK7c_auuM8LPZImZWRX-16">
          <mxGeometry x="50" y="250" width="220" height="200" as="geometry" />
        </mxCell>
        <mxCell id="xYK7c_auuM8LPZImZWRX-12" value="P-004 (Mike - Registered Nurse)" style="rounded=0;whiteSpace=wrap;html=1;" vertex="1" parent="xYK7c_auuM8LPZImZWRX-9">
          <mxGeometry x="80" y="20" width="120" height="60" as="geometry" />
        </mxCell>
        <mxCell id="xYK7c_auuM8LPZImZWRX-13" value="P-006 (Sarah - Informal Caregiver)" style="rounded=0;whiteSpace=wrap;html=1;" vertex="1" parent="xYK7c_auuM8LPZImZWRX-9">
          <mxGeometry x="80" y="120" width="120" height="60" as="geometry" />
        </mxCell>
        <mxCell id="xYK7c_auuM8LPZImZWRX-10" value="&lt;font style=&quot;font-size: 14px;&quot;&gt;Group 3 (e.g., Older Adults)&lt;/font&gt;" style="swimlane;horizontal=0;whiteSpace=wrap;html=1;startSize=60;" vertex="1" parent="xYK7c_auuM8LPZImZWRX-16">
          <mxGeometry x="50" y="490" width="220" height="200" as="geometry" />
        </mxCell>
        <mxCell id="xYK7c_auuM8LPZImZWRX-14" value="P-002 (Elena - Open-minded Older)" style="rounded=0;whiteSpace=wrap;html=1;" vertex="1" parent="xYK7c_auuM8LPZImZWRX-10">
          <mxGeometry x="80" y="20" width="120" height="60" as="geometry" />
        </mxCell>
        <mxCell id="xYK7c_auuM8LPZImZWRX-15" value="P-005 (Olivia - Difficult Older)" style="rounded=0;whiteSpace=wrap;html=1;" vertex="1" parent="xYK7c_auuM8LPZImZWRX-10">
          <mxGeometry x="80" y="120" width="120" height="60" as="geometry" />
        </mxCell>
        <mxCell id="xYK7c_auuM8LPZImZWRX-73" style="edgeStyle=orthogonalEdgeStyle;rounded=0;orthogonalLoop=1;jettySize=auto;html=1;exitX=0.5;exitY=1;exitDx=0;exitDy=0;entryX=0;entryY=0.5;entryDx=0;entryDy=0;dashed=1;" edge="1" parent="1" source="xYK7c_auuM8LPZImZWRX-17" target="xYK7c_auuM8LPZImZWRX-45">
          <mxGeometry relative="1" as="geometry">
            <Array as="points">
              <mxPoint x="-280" y="1020" />
              <mxPoint x="460" y="1020" />
              <mxPoint x="460" y="470" />
            </Array>
          </mxGeometry>
        </mxCell>
        <mxCell id="xYK7c_auuM8LPZImZWRX-19" style="edgeStyle=orthogonalEdgeStyle;rounded=0;orthogonalLoop=1;jettySize=auto;html=1;exitX=0;exitY=0.5;exitDx=0;exitDy=0;entryX=1;entryY=0.5;entryDx=0;entryDy=0;" edge="1" parent="1" source="xYK7c_auuM8LPZImZWRX-8" target="xYK7c_auuM8LPZImZWRX-23">
          <mxGeometry relative="1" as="geometry">
            <mxPoint x="20" y="260" as="targetPoint" />
          </mxGeometry>
        </mxCell>
        <mxCell id="xYK7c_auuM8LPZImZWRX-21" style="edgeStyle=orthogonalEdgeStyle;rounded=0;orthogonalLoop=1;jettySize=auto;html=1;exitX=0;exitY=0.5;exitDx=0;exitDy=0;" edge="1" parent="1" source="xYK7c_auuM8LPZImZWRX-9" target="xYK7c_auuM8LPZImZWRX-22">
          <mxGeometry relative="1" as="geometry">
            <mxPoint x="30" y="460.38461538461524" as="targetPoint" />
          </mxGeometry>
        </mxCell>
        <mxCell id="xYK7c_auuM8LPZImZWRX-25" style="edgeStyle=orthogonalEdgeStyle;rounded=0;orthogonalLoop=1;jettySize=auto;html=1;exitX=0;exitY=0.5;exitDx=0;exitDy=0;" edge="1" parent="1" source="xYK7c_auuM8LPZImZWRX-10" target="xYK7c_auuM8LPZImZWRX-24">
          <mxGeometry relative="1" as="geometry" />
        </mxCell>
        <mxCell id="xYK7c_auuM8LPZImZWRX-72" style="edgeStyle=orthogonalEdgeStyle;rounded=0;orthogonalLoop=1;jettySize=auto;html=1;exitX=1;exitY=0.5;exitDx=0;exitDy=0;entryX=0;entryY=0.5;entryDx=0;entryDy=0;" edge="1" parent="1" source="xYK7c_auuM8LPZImZWRX-45" target="xYK7c_auuM8LPZImZWRX-58">
          <mxGeometry relative="1" as="geometry" />
        </mxCell>
        <mxCell id="xYK7c_auuM8LPZImZWRX-77" value="&lt;font style=&quot;font-size: 14px;&quot;&gt;Extract&lt;/font&gt;" style="edgeLabel;html=1;align=center;verticalAlign=middle;resizable=0;points=[];" vertex="1" connectable="0" parent="xYK7c_auuM8LPZImZWRX-72">
          <mxGeometry y="1" relative="1" as="geometry">
            <mxPoint as="offset" />
          </mxGeometry>
        </mxCell>
        <mxCell id="xYK7c_auuM8LPZImZWRX-45" value="&lt;font style=&quot;font-size: 20px;&quot;&gt;USE CASES&lt;/font&gt;" style="swimlane;whiteSpace=wrap;html=1;startSize=40;" vertex="1" parent="1">
          <mxGeometry x="570" y="110" width="220" height="720" as="geometry" />
        </mxCell>
        <mxCell id="xYK7c_auuM8LPZImZWRX-46" value="&lt;font style=&quot;font-size: 14px;&quot;&gt;Use Case UC-001&lt;/font&gt;" style="rounded=0;whiteSpace=wrap;html=1;" vertex="1" parent="xYK7c_auuM8LPZImZWRX-45">
          <mxGeometry x="30" y="90" width="160" height="60" as="geometry" />
        </mxCell>
        <mxCell id="xYK7c_auuM8LPZImZWRX-49" value="&lt;font style=&quot;font-size: 16px;&quot;&gt;&lt;b&gt;...&lt;/b&gt;&lt;/font&gt;" style="text;html=1;align=center;verticalAlign=middle;resizable=0;points=[];autosize=1;strokeColor=none;fillColor=none;" vertex="1" parent="xYK7c_auuM8LPZImZWRX-45">
          <mxGeometry x="90" y="500" width="40" height="30" as="geometry" />
        </mxCell>
        <mxCell id="xYK7c_auuM8LPZImZWRX-61" value="&lt;font style=&quot;font-size: 14px;&quot;&gt;Use Case UC-002&lt;/font&gt;" style="rounded=0;whiteSpace=wrap;html=1;" vertex="1" parent="xYK7c_auuM8LPZImZWRX-45">
          <mxGeometry x="30" y="230" width="160" height="60" as="geometry" />
        </mxCell>
        <mxCell id="xYK7c_auuM8LPZImZWRX-62" value="&lt;font style=&quot;font-size: 14px;&quot;&gt;Use Case UC-002&lt;/font&gt;" style="rounded=0;whiteSpace=wrap;html=1;" vertex="1" parent="xYK7c_auuM8LPZImZWRX-45">
          <mxGeometry x="30" y="370" width="160" height="60" as="geometry" />
        </mxCell>
        <mxCell id="xYK7c_auuM8LPZImZWRX-68" value="&lt;font style=&quot;font-size: 14px;&quot;&gt;Use Case UC-XXX&lt;/font&gt;" style="rounded=0;whiteSpace=wrap;html=1;" vertex="1" parent="xYK7c_auuM8LPZImZWRX-45">
          <mxGeometry x="30" y="610" width="160" height="60" as="geometry" />
        </mxCell>
        <mxCell id="xYK7c_auuM8LPZImZWRX-83" style="edgeStyle=orthogonalEdgeStyle;rounded=0;orthogonalLoop=1;jettySize=auto;html=1;exitX=1;exitY=0.5;exitDx=0;exitDy=0;entryX=0;entryY=0.5;entryDx=0;entryDy=0;" edge="1" parent="1" source="xYK7c_auuM8LPZImZWRX-58" target="xYK7c_auuM8LPZImZWRX-85">
          <mxGeometry relative="1" as="geometry">
            <mxPoint x="1360" y="469.5714285714289" as="targetPoint" />
          </mxGeometry>
        </mxCell>
        <mxCell id="xYK7c_auuM8LPZImZWRX-87" value="&lt;font style=&quot;font-size: 14px;&quot;&gt;1-by-1 generate&lt;/font&gt;" style="edgeLabel;html=1;align=center;verticalAlign=middle;resizable=0;points=[];" vertex="1" connectable="0" parent="xYK7c_auuM8LPZImZWRX-83">
          <mxGeometry x="-0.0509" y="-1" relative="1" as="geometry">
            <mxPoint as="offset" />
          </mxGeometry>
        </mxCell>
        <mxCell id="xYK7c_auuM8LPZImZWRX-58" value="&lt;font style=&quot;font-size: 20px;&quot;&gt;TASKS&lt;/font&gt;" style="swimlane;whiteSpace=wrap;html=1;startSize=40;" vertex="1" parent="1">
          <mxGeometry x="960" y="110" width="200" height="720" as="geometry" />
        </mxCell>
        <mxCell id="xYK7c_auuM8LPZImZWRX-59" value="&lt;font style=&quot;font-size: 14px;&quot;&gt;P-001&#39;s Tasks&lt;/font&gt;" style="rounded=0;whiteSpace=wrap;html=1;" vertex="1" parent="xYK7c_auuM8LPZImZWRX-58">
          <mxGeometry x="40" y="89.99999999999999" width="120" height="60" as="geometry" />
        </mxCell>
        <mxCell id="xYK7c_auuM8LPZImZWRX-79" value="&lt;font style=&quot;font-size: 14px;&quot;&gt;P-004&#39;s Tasks&lt;/font&gt;" style="rounded=0;whiteSpace=wrap;html=1;" vertex="1" parent="xYK7c_auuM8LPZImZWRX-58">
          <mxGeometry x="40" y="270" width="120" height="60" as="geometry" />
        </mxCell>
        <mxCell id="xYK7c_auuM8LPZImZWRX-80" value="&lt;font style=&quot;font-size: 14px;&quot;&gt;P-006&#39;s Tasks&lt;/font&gt;" style="rounded=0;whiteSpace=wrap;html=1;" vertex="1" parent="xYK7c_auuM8LPZImZWRX-58">
          <mxGeometry x="40" y="380" width="120" height="60" as="geometry" />
        </mxCell>
        <mxCell id="xYK7c_auuM8LPZImZWRX-81" value="&lt;font style=&quot;font-size: 14px;&quot;&gt;P-002&#39;s Tasks&lt;/font&gt;" style="rounded=0;whiteSpace=wrap;html=1;" vertex="1" parent="xYK7c_auuM8LPZImZWRX-58">
          <mxGeometry x="40" y="510" width="120" height="60" as="geometry" />
        </mxCell>
        <mxCell id="xYK7c_auuM8LPZImZWRX-82" value="&lt;font style=&quot;font-size: 14px;&quot;&gt;P-005&#39;s Tasks&lt;/font&gt;" style="rounded=0;whiteSpace=wrap;html=1;" vertex="1" parent="xYK7c_auuM8LPZImZWRX-58">
          <mxGeometry x="40" y="620" width="120" height="60" as="geometry" />
        </mxCell>
        <mxCell id="xYK7c_auuM8LPZImZWRX-74" value="&lt;font style=&quot;font-size: 30px;&quot;&gt;SYSTEM (e.g., ALFRED)&lt;/font&gt;" style="swimlane;whiteSpace=wrap;html=1;startSize=70;" vertex="1" parent="1">
          <mxGeometry x="-540" y="-160" width="560" height="1370" as="geometry" />
        </mxCell>
        <mxCell id="xYK7c_auuM8LPZImZWRX-17" value="&lt;b&gt;&lt;font style=&quot;font-size: 20px;&quot;&gt;USE CASE GUIDELINES&amp;nbsp;&lt;/font&gt;&lt;/b&gt;&lt;div&gt;&lt;b&gt;&lt;font style=&quot;font-size: 20px;&quot;&gt;(Definition, Structure, ...)&lt;/font&gt;&lt;/b&gt;&lt;/div&gt;" style="rounded=0;whiteSpace=wrap;html=1;" vertex="1" parent="xYK7c_auuM8LPZImZWRX-74">
          <mxGeometry x="120" y="1060" width="320" height="80" as="geometry" />
        </mxCell>
        <mxCell id="xYK7c_auuM8LPZImZWRX-18" value="&lt;b&gt;&lt;font style=&quot;font-size: 20px;&quot;&gt;SYSTEM SUMMARY&amp;nbsp;&lt;/font&gt;&lt;/b&gt;&lt;div&gt;&lt;b&gt;&lt;font style=&quot;font-size: 20px;&quot;&gt;(e,g., ALFRED)&lt;/font&gt;&lt;/b&gt;&lt;/div&gt;" style="rounded=0;whiteSpace=wrap;html=1;" vertex="1" parent="xYK7c_auuM8LPZImZWRX-74">
          <mxGeometry x="120" y="120" width="320" height="80" as="geometry" />
        </mxCell>
        <mxCell id="xYK7c_auuM8LPZImZWRX-76" value="&lt;font style=&quot;font-size: 20px;&quot;&gt;USER GROUPS&lt;/font&gt;" style="swimlane;whiteSpace=wrap;html=1;startSize=60;" vertex="1" parent="xYK7c_auuM8LPZImZWRX-74">
          <mxGeometry x="120" y="280" width="330" height="680" as="geometry" />
        </mxCell>
        <mxCell id="xYK7c_auuM8LPZImZWRX-23" value="&lt;font style=&quot;font-size: 18px;&quot;&gt;User group 1&#39;s guidelines&lt;/font&gt;" style="rounded=0;whiteSpace=wrap;html=1;" vertex="1" parent="xYK7c_auuM8LPZImZWRX-76">
          <mxGeometry x="85" y="100.10000000000002" width="160" height="79.81" as="geometry" />
        </mxCell>
        <mxCell id="xYK7c_auuM8LPZImZWRX-22" value="&lt;font style=&quot;font-size: 18px;&quot;&gt;User group 2&#39;s guidelines&lt;/font&gt;" style="rounded=0;whiteSpace=wrap;html=1;" vertex="1" parent="xYK7c_auuM8LPZImZWRX-76">
          <mxGeometry x="85" y="300.1" width="160" height="79.81" as="geometry" />
        </mxCell>
        <mxCell id="xYK7c_auuM8LPZImZWRX-24" value="&lt;font style=&quot;font-size: 18px;&quot;&gt;User group 3&lt;/font&gt;&lt;span style=&quot;font-size: 18px; background-color: transparent; color: light-dark(rgb(0, 0, 0), rgb(255, 255, 255));&quot;&gt;&#39;s guidelines&lt;/span&gt;" style="rounded=0;whiteSpace=wrap;html=1;" vertex="1" parent="xYK7c_auuM8LPZImZWRX-76">
          <mxGeometry x="80" y="540.1" width="160" height="79.81" as="geometry" />
        </mxCell>
        <mxCell id="xYK7c_auuM8LPZImZWRX-78" style="edgeStyle=orthogonalEdgeStyle;rounded=0;orthogonalLoop=1;jettySize=auto;html=1;exitX=1;exitY=0.5;exitDx=0;exitDy=0;entryX=0;entryY=0.5;entryDx=0;entryDy=0;dashed=1;" edge="1" parent="1" source="xYK7c_auuM8LPZImZWRX-18" target="xYK7c_auuM8LPZImZWRX-45">
          <mxGeometry relative="1" as="geometry">
            <Array as="points">
              <mxPoint x="460" />
              <mxPoint x="460" y="470" />
            </Array>
          </mxGeometry>
        </mxCell>
        <mxCell id="xYK7c_auuM8LPZImZWRX-86" value="&lt;font style=&quot;font-size: 14px;&quot;&gt;Generate&lt;/font&gt;" style="edgeLabel;html=1;align=center;verticalAlign=middle;resizable=0;points=[];" vertex="1" connectable="0" parent="xYK7c_auuM8LPZImZWRX-78">
          <mxGeometry x="0.9021" y="-1" relative="1" as="geometry">
            <mxPoint as="offset" />
          </mxGeometry>
        </mxCell>
        <mxCell id="xYK7c_auuM8LPZImZWRX-85" value="&lt;font style=&quot;font-size: 20px;&quot;&gt;USER STORIES&lt;/font&gt;" style="swimlane;whiteSpace=wrap;html=1;startSize=40;" vertex="1" parent="1">
          <mxGeometry x="1380" y="110" width="450" height="720" as="geometry" />
        </mxCell>
        <mxCell id="xYK7c_auuM8LPZImZWRX-89" value="&lt;font style=&quot;font-size: 18px;&quot;&gt;NON-FUNCTIONAL USER STORIES&lt;/font&gt;" style="swimlane;whiteSpace=wrap;html=1;startSize=40;" vertex="1" parent="xYK7c_auuM8LPZImZWRX-85">
          <mxGeometry x="62.5" y="70" width="325" height="290" as="geometry" />
        </mxCell>
        <mxCell id="xYK7c_auuM8LPZImZWRX-96" value="&lt;font style=&quot;font-size: 14px;&quot;&gt;P-001&#39;s NFUSs&lt;/font&gt;" style="rounded=0;whiteSpace=wrap;html=1;" vertex="1" parent="xYK7c_auuM8LPZImZWRX-89">
          <mxGeometry x="17.5" y="59.91" width="120" height="30.09" as="geometry" />
        </mxCell>
        <mxCell id="xYK7c_auuM8LPZImZWRX-100" value="&lt;font style=&quot;font-size: 14px;&quot;&gt;P-004s NFUSs&lt;/font&gt;" style="rounded=0;whiteSpace=wrap;html=1;" vertex="1" parent="xYK7c_auuM8LPZImZWRX-89">
          <mxGeometry x="177.5" y="99.99999999999997" width="120" height="30.09" as="geometry" />
        </mxCell>
        <mxCell id="xYK7c_auuM8LPZImZWRX-101" value="&lt;font style=&quot;font-size: 14px;&quot;&gt;P-006s NFUSs&lt;/font&gt;" style="rounded=0;whiteSpace=wrap;html=1;" vertex="1" parent="xYK7c_auuM8LPZImZWRX-89">
          <mxGeometry x="177.5" y="150" width="120" height="30.09" as="geometry" />
        </mxCell>
        <mxCell id="xYK7c_auuM8LPZImZWRX-102" value="&lt;font style=&quot;font-size: 14px;&quot;&gt;P-002s NFUSs&lt;/font&gt;" style="rounded=0;whiteSpace=wrap;html=1;" vertex="1" parent="xYK7c_auuM8LPZImZWRX-89">
          <mxGeometry x="17.5" y="190" width="120" height="30.09" as="geometry" />
        </mxCell>
        <mxCell id="xYK7c_auuM8LPZImZWRX-103" value="&lt;font style=&quot;font-size: 14px;&quot;&gt;P-005s NFUSs&lt;/font&gt;" style="rounded=0;whiteSpace=wrap;html=1;" vertex="1" parent="xYK7c_auuM8LPZImZWRX-89">
          <mxGeometry x="17.5" y="240" width="120" height="30.09" as="geometry" />
        </mxCell>
        <mxCell id="xYK7c_auuM8LPZImZWRX-104" value="&lt;font style=&quot;font-size: 18px;&quot;&gt;FUNCTIONAL USER STORIES&lt;/font&gt;" style="swimlane;whiteSpace=wrap;html=1;startSize=40;" vertex="1" parent="xYK7c_auuM8LPZImZWRX-85">
          <mxGeometry x="62.5" y="390" width="325" height="290" as="geometry" />
        </mxCell>
        <mxCell id="xYK7c_auuM8LPZImZWRX-105" value="&lt;font style=&quot;font-size: 14px;&quot;&gt;P-001&#39;s FUSs&lt;/font&gt;" style="rounded=0;whiteSpace=wrap;html=1;" vertex="1" parent="xYK7c_auuM8LPZImZWRX-104">
          <mxGeometry x="17.5" y="59.91" width="120" height="30.09" as="geometry" />
        </mxCell>
        <mxCell id="xYK7c_auuM8LPZImZWRX-106" value="&lt;font style=&quot;font-size: 14px;&quot;&gt;P-004s FUSs&lt;/font&gt;" style="rounded=0;whiteSpace=wrap;html=1;" vertex="1" parent="xYK7c_auuM8LPZImZWRX-104">
          <mxGeometry x="177.5" y="99.99999999999997" width="120" height="30.09" as="geometry" />
        </mxCell>
        <mxCell id="xYK7c_auuM8LPZImZWRX-107" value="&lt;font style=&quot;font-size: 14px;&quot;&gt;P-006s FUSs&lt;/font&gt;" style="rounded=0;whiteSpace=wrap;html=1;" vertex="1" parent="xYK7c_auuM8LPZImZWRX-104">
          <mxGeometry x="177.5" y="150" width="120" height="30.09" as="geometry" />
        </mxCell>
        <mxCell id="xYK7c_auuM8LPZImZWRX-108" value="&lt;font style=&quot;font-size: 14px;&quot;&gt;P-002s FUSs&lt;/font&gt;" style="rounded=0;whiteSpace=wrap;html=1;" vertex="1" parent="xYK7c_auuM8LPZImZWRX-104">
          <mxGeometry x="17.5" y="190" width="120" height="30.09" as="geometry" />
        </mxCell>
        <mxCell id="xYK7c_auuM8LPZImZWRX-109" value="&lt;font style=&quot;font-size: 14px;&quot;&gt;P-005s FUSs&lt;/font&gt;" style="rounded=0;whiteSpace=wrap;html=1;" vertex="1" parent="xYK7c_auuM8LPZImZWRX-104">
          <mxGeometry x="17.5" y="240" width="120" height="30.09" as="geometry" />
        </mxCell>
      </root>
    </mxGraphModel>
  </diagram>
</mxfile>
